<svg width="21" height="21" viewBox="0 0 21 21" fill="none" xmlns="http://www.w3.org/2000/svg">
<path d="M9.37513 10.5C9.37513 10.7984 9.49366 11.0845 9.70464 11.2955C9.91562 11.5065 10.2018 11.625 10.5001 11.625C10.7985 11.625 11.0846 11.5065 11.2956 11.2955C11.5066 11.0845 11.6251 10.7984 11.6251 10.5C11.6251 10.2016 11.5066 9.91548 11.2956 9.7045C11.0846 9.49353 10.7985 9.375 10.5001 9.375C10.2018 9.375 9.91562 9.49353 9.70464 9.7045C9.49366 9.91548 9.37513 10.2016 9.37513 10.5ZM14.0626 10.5C14.0626 10.7984 14.1812 11.0845 14.3921 11.2955C14.6031 11.5065 14.8893 11.625 15.1876 11.625C15.486 11.625 15.7721 11.5065 15.9831 11.2955C16.1941 11.0845 16.3126 10.7984 16.3126 10.5C16.3126 10.2016 16.1941 9.91548 15.9831 9.7045C15.7721 9.49353 15.486 9.375 15.1876 9.375C14.8893 9.375 14.6031 9.49353 14.3921 9.7045C14.1812 9.91548 14.0626 10.2016 14.0626 10.5ZM4.68763 10.5C4.68763 10.7984 4.80616 11.0845 5.01714 11.2955C5.22812 11.5065 5.51426 11.625 5.81263 11.625C6.111 11.625 6.39715 11.5065 6.60813 11.2955C6.81911 11.0845 6.93763 10.7984 6.93763 10.5C6.93763 10.2016 6.81911 9.91548 6.60813 9.7045C6.39715 9.49353 6.111 9.375 5.81263 9.375C5.51426 9.375 5.22812 9.49353 5.01714 9.7045C4.80616 9.91548 4.68763 10.2016 4.68763 10.5ZM20.1845 6.43125C19.6548 5.17266 18.8954 4.04297 17.9275 3.07266C16.9663 2.10796 15.8252 1.34114 14.5689 0.815625C13.2798 0.274219 11.9111 0 10.5001 0H10.4533C9.03295 0.00703125 7.65716 0.288281 6.36341 0.841406C5.11785 1.37232 3.98747 2.14049 3.03529 3.10312C2.0767 4.07109 1.32435 5.19609 0.804039 6.45C0.264977 7.74844 -0.00689828 9.12891 0.000132967 10.5492C0.0080859 12.1769 0.393161 13.7806 1.12513 15.2344V18.7969C1.12513 19.0828 1.23872 19.357 1.44091 19.5592C1.6431 19.7614 1.91732 19.875 2.20326 19.875H5.7681C7.22192 20.607 8.82559 20.992 10.4533 21H10.5025C11.9064 21 13.2681 20.7281 14.5501 20.1961C15.8001 19.6768 16.9369 18.919 17.897 17.9648C18.865 17.0063 19.6267 15.8859 20.1587 14.6367C20.7119 13.343 20.9931 11.9672 21.0001 10.5469C21.0072 9.11953 20.7306 7.73438 20.1845 6.43125ZM16.6431 16.6969C15.0001 18.3234 12.8204 19.2188 10.5001 19.2188H10.4603C9.04701 19.2117 7.6431 18.8602 6.40326 18.1992L6.20638 18.0938H2.90638V14.7938L2.80091 14.5969C2.13998 13.357 1.78841 11.9531 1.78138 10.5398C1.77201 8.20312 2.66498 6.00937 4.30326 4.35703C5.9392 2.70469 8.12591 1.79062 10.4626 1.78125H10.5025C11.6744 1.78125 12.8111 2.00859 13.8822 2.45859C14.9275 2.89687 15.865 3.52734 16.6712 4.33359C17.4751 5.1375 18.1079 6.07734 18.5462 7.12266C19.0009 8.20547 19.2283 9.35391 19.2236 10.5398C19.2095 12.8742 18.2931 15.0609 16.6431 16.6969Z" fill="#002766"/>
</svg>
