<svg width="171" height="17" viewBox="0 0 171 17" fill="none" xmlns="http://www.w3.org/2000/svg">
<path d="M13.9648 12.9004L16.4648 16.1328H13.2227L11.9531 14.502C10.9049 15.0749 9.73633 15.3613 8.44727 15.3613C6.29232 15.3613 4.50195 14.6191 3.07617 13.1348C1.65039 11.6439 0.9375 9.86979 0.9375 7.8125C0.9375 6.4388 1.26953 5.17904 1.93359 4.0332C2.59766 2.88086 3.50911 1.96615 4.66797 1.28906C5.83333 0.611979 7.08333 0.273438 8.41797 0.273438C10.4557 0.273438 12.2038 1.00911 13.6621 2.48047C15.127 3.95182 15.8594 5.74544 15.8594 7.86133C15.8594 9.80794 15.2279 11.4876 13.9648 12.9004ZM12.2559 10.6934C12.8353 9.83398 13.125 8.88346 13.125 7.8418C13.125 6.48112 12.666 5.32552 11.748 4.375C10.8301 3.42448 9.72005 2.94922 8.41797 2.94922C7.07682 2.94922 5.95378 3.41146 5.04883 4.33594C4.14388 5.26042 3.69141 6.43555 3.69141 7.86133C3.69141 9.44987 4.26107 10.7064 5.40039 11.6309C6.29232 12.3535 7.30469 12.7148 8.4375 12.7148C9.08854 12.7148 9.70052 12.5879 10.2734 12.334L7.70508 9.02344H10.9668L12.2559 10.6934ZM18.1348 4.375H20.8301V9.49219C20.8301 10.4883 20.8984 11.1816 21.0352 11.5723C21.1719 11.9564 21.39 12.2559 21.6895 12.4707C21.9954 12.6855 22.3698 12.793 22.8125 12.793C23.2552 12.793 23.6296 12.6888 23.9355 12.4805C24.248 12.2656 24.4792 11.9531 24.6289 11.543C24.7396 11.237 24.7949 10.5827 24.7949 9.58008V4.375H27.4707V8.87695C27.4707 10.7324 27.3242 12.002 27.0312 12.6855C26.6732 13.5189 26.1458 14.1602 25.4492 14.6094C24.7526 15.0521 23.8672 15.2734 22.793 15.2734C21.6276 15.2734 20.6836 15.013 19.9609 14.4922C19.2448 13.9714 18.7402 13.2454 18.4473 12.3145C18.2389 11.6699 18.1348 10.498 18.1348 8.79883V4.375ZM38.0078 4.375H40.6641V15H38.0078V13.877C37.487 14.3717 36.9629 14.7298 36.4355 14.9512C35.9147 15.166 35.3483 15.2734 34.7363 15.2734C33.3626 15.2734 32.1745 14.7428 31.1719 13.6816C30.1693 12.6139 29.668 11.2891 29.668 9.70703C29.668 8.06641 30.153 6.72201 31.123 5.67383C32.0931 4.62565 33.2715 4.10156 34.6582 4.10156C35.2962 4.10156 35.8952 4.22201 36.4551 4.46289C37.015 4.70378 37.5326 5.0651 38.0078 5.54688V4.375ZM35.2051 6.5625C34.3783 6.5625 33.6914 6.85547 33.1445 7.44141C32.5977 8.02083 32.3242 8.76628 32.3242 9.67773C32.3242 10.5957 32.6009 11.3509 33.1543 11.9434C33.7142 12.5358 34.401 12.832 35.2148 12.832C36.0547 12.832 36.7513 12.5423 37.3047 11.9629C37.8581 11.377 38.1348 10.612 38.1348 9.66797C38.1348 8.74349 37.8581 7.99479 37.3047 7.42188C36.7513 6.84896 36.0514 6.5625 35.2051 6.5625ZM42.7344 4.375H45.0195V5.71289C45.2669 5.18555 45.5957 4.78516 46.0059 4.51172C46.416 4.23828 46.8652 4.10156 47.3535 4.10156C47.6986 4.10156 48.0599 4.19271 48.4375 4.375L47.6074 6.66992C47.2949 6.51367 47.0378 6.43555 46.8359 6.43555C46.4258 6.43555 46.0775 6.68945 45.791 7.19727C45.5111 7.70508 45.3711 8.70117 45.3711 10.1855L45.3809 10.7031V15H42.7344V4.375ZM57.6172 4.375H60.2734V15H57.6172V13.877C57.0964 14.3717 56.5723 14.7298 56.0449 14.9512C55.5241 15.166 54.9577 15.2734 54.3457 15.2734C52.972 15.2734 51.7839 14.7428 50.7812 13.6816C49.7786 12.6139 49.2773 11.2891 49.2773 9.70703C49.2773 8.06641 49.7624 6.72201 50.7324 5.67383C51.7025 4.62565 52.8809 4.10156 54.2676 4.10156C54.9056 4.10156 55.5046 4.22201 56.0645 4.46289C56.6243 4.70378 57.1419 5.0651 57.6172 5.54688V4.375ZM54.8145 6.5625C53.9876 6.5625 53.3008 6.85547 52.7539 7.44141C52.207 8.02083 51.9336 8.76628 51.9336 9.67773C51.9336 10.5957 52.2103 11.3509 52.7637 11.9434C53.3236 12.5358 54.0104 12.832 54.8242 12.832C55.6641 12.832 56.3607 12.5423 56.9141 11.9629C57.4674 11.377 57.7441 10.612 57.7441 9.66797C57.7441 8.74349 57.4674 7.99479 56.9141 7.42188C56.3607 6.84896 55.6608 6.5625 54.8145 6.5625ZM62.9688 4.375H65.625V5.45898C66.2305 4.95117 66.7773 4.59961 67.2656 4.4043C67.7604 4.20247 68.265 4.10156 68.7793 4.10156C69.834 4.10156 70.7292 4.4694 71.4648 5.20508C72.0833 5.83008 72.3926 6.75456 72.3926 7.97852V15H69.7559V10.3418C69.7559 9.07227 69.6973 8.22917 69.5801 7.8125C69.4694 7.39583 69.2708 7.08008 68.9844 6.86523C68.7044 6.64388 68.3561 6.5332 67.9395 6.5332C67.3991 6.5332 66.9336 6.71549 66.543 7.08008C66.1589 7.43815 65.8919 7.9362 65.7422 8.57422C65.6641 8.90625 65.625 9.62565 65.625 10.7324V15H62.9688V4.375ZM75.3027 0.458984H77.959V4.375H79.541V6.66992H77.959V15H75.3027V6.66992H73.9355V4.375H75.3027V0.458984ZM82.0215 0C82.4902 0 82.8906 0.169271 83.2227 0.507812C83.5612 0.846354 83.7305 1.25651 83.7305 1.73828C83.7305 2.21354 83.5645 2.62044 83.2324 2.95898C82.9004 3.29102 82.5033 3.45703 82.041 3.45703C81.5658 3.45703 81.1589 3.28776 80.8203 2.94922C80.4883 2.60417 80.3223 2.1875 80.3223 1.69922C80.3223 1.23047 80.4883 0.830078 80.8203 0.498047C81.1523 0.166016 81.5527 0 82.0215 0ZM80.6836 4.375H83.3594V15H80.6836V4.375ZM85.7812 4.375H88.4375V5.45898C89.043 4.95117 89.5898 4.59961 90.0781 4.4043C90.5729 4.20247 91.0775 4.10156 91.5918 4.10156C92.6465 4.10156 93.5417 4.4694 94.2773 5.20508C94.8958 5.83008 95.2051 6.75456 95.2051 7.97852V15H92.5684V10.3418C92.5684 9.07227 92.5098 8.22917 92.3926 7.8125C92.2819 7.39583 92.0833 7.08008 91.7969 6.86523C91.5169 6.64388 91.1686 6.5332 90.752 6.5332C90.2116 6.5332 89.7461 6.71549 89.3555 7.08008C88.9714 7.43815 88.7044 7.9362 88.5547 8.57422C88.4766 8.90625 88.4375 9.62565 88.4375 10.7324V15H85.7812V4.375ZM108.438 10.459H99.873C99.9967 11.2142 100.326 11.8164 100.859 12.2656C101.4 12.7083 102.087 12.9297 102.92 12.9297C103.916 12.9297 104.772 12.5814 105.488 11.8848L107.734 12.9395C107.174 13.7337 106.504 14.3229 105.723 14.707C104.941 15.0846 104.014 15.2734 102.939 15.2734C101.273 15.2734 99.9154 14.7493 98.8672 13.7012C97.819 12.6465 97.2949 11.3281 97.2949 9.74609C97.2949 8.125 97.8158 6.7806 98.8574 5.71289C99.9056 4.63867 101.217 4.10156 102.793 4.10156C104.466 4.10156 105.827 4.63867 106.875 5.71289C107.923 6.7806 108.447 8.19336 108.447 9.95117L108.438 10.459ZM105.762 8.35938C105.586 7.76693 105.238 7.28516 104.717 6.91406C104.202 6.54297 103.604 6.35742 102.92 6.35742C102.178 6.35742 101.527 6.56576 100.967 6.98242C100.615 7.24284 100.29 7.70182 99.9902 8.35938H105.762ZM115.088 0.634766H123.027V3.33008H120.41V15H117.637V3.33008H115.088V0.634766ZM123.984 4.375H126.27V5.71289C126.517 5.18555 126.846 4.78516 127.256 4.51172C127.666 4.23828 128.115 4.10156 128.604 4.10156C128.949 4.10156 129.31 4.19271 129.688 4.375L128.857 6.66992C128.545 6.51367 128.288 6.43555 128.086 6.43555C127.676 6.43555 127.327 6.68945 127.041 7.19727C126.761 7.70508 126.621 8.70117 126.621 10.1855L126.631 10.7031V15H123.984V4.375ZM138.867 4.375H141.523V15H138.867V13.877C138.346 14.3717 137.822 14.7298 137.295 14.9512C136.774 15.166 136.208 15.2734 135.596 15.2734C134.222 15.2734 133.034 14.7428 132.031 13.6816C131.029 12.6139 130.527 11.2891 130.527 9.70703C130.527 8.06641 131.012 6.72201 131.982 5.67383C132.952 4.62565 134.131 4.10156 135.518 4.10156C136.156 4.10156 136.755 4.22201 137.314 4.46289C137.874 4.70378 138.392 5.0651 138.867 5.54688V4.375ZM136.064 6.5625C135.238 6.5625 134.551 6.85547 134.004 7.44141C133.457 8.02083 133.184 8.76628 133.184 9.67773C133.184 10.5957 133.46 11.3509 134.014 11.9434C134.574 12.5358 135.26 12.832 136.074 12.832C136.914 12.832 137.611 12.5423 138.164 11.9629C138.717 11.377 138.994 10.612 138.994 9.66797C138.994 8.74349 138.717 7.99479 138.164 7.42188C137.611 6.84896 136.911 6.5625 136.064 6.5625ZM143.076 4.375H145.791L148.477 10.6445L151.152 4.375H153.857L149.336 15H147.607L143.076 4.375ZM166.074 10.459H157.51C157.633 11.2142 157.962 11.8164 158.496 12.2656C159.036 12.7083 159.723 12.9297 160.557 12.9297C161.553 12.9297 162.409 12.5814 163.125 11.8848L165.371 12.9395C164.811 13.7337 164.141 14.3229 163.359 14.707C162.578 15.0846 161.65 15.2734 160.576 15.2734C158.91 15.2734 157.552 14.7493 156.504 13.7012C155.456 12.6465 154.932 11.3281 154.932 9.74609C154.932 8.125 155.452 6.7806 156.494 5.71289C157.542 4.63867 158.854 4.10156 160.43 4.10156C162.103 4.10156 163.464 4.63867 164.512 5.71289C165.56 6.7806 166.084 8.19336 166.084 9.95117L166.074 10.459ZM163.398 8.35938C163.223 7.76693 162.874 7.28516 162.354 6.91406C161.839 6.54297 161.24 6.35742 160.557 6.35742C159.814 6.35742 159.163 6.56576 158.604 6.98242C158.252 7.24284 157.926 7.70182 157.627 8.35938H163.398ZM167.959 0.273438H170.625V15H167.959V0.273438Z" fill="white"/>
</svg>
